<?xml version="1.0" encoding="UTF-8"?>
<svg id="Layer_1" data-name="Layer 1" xmlns="http://www.w3.org/2000/svg" viewBox="0 0 552.32 166.77">
  <defs>
    <style>
      .cls-1 {
        fill: #fff;
      }

      .cls-2 {
        fill: #1f60ad;
      }
    </style>
  </defs>
  <path class="cls-1" d="M0,138.63c.6,.02,1.2,.05,1.79,.05,182.85,0,365.7,0,548.55,0h1.85v3.86h-1.61c-18.95,0-37.91,0-56.86,0-163.9,0-327.79,0-491.69,0-.68,0-1.36-.05-2.03-.07,0-1.28,0-2.56,0-3.83Z"/>
  <path class="cls-1" d="M0,152.77H2.29v13.9H0v-13.9Z"/>
  <path class="cls-2" d="M65.84,0c.75,2.31,1.47,4.5,2.18,6.69,2.23,6.9,4.45,13.81,6.7,20.71,.25,.76,.33,1.26-.58,1.72-12.13,6.04-21.24,15.29-28.24,26.74-6.78,11.09-11.01,23.15-13.61,35.83-1.14,5.55-1.83,11.16-2.1,16.82-.08,1.74,.06,1.92,1.81,1.93,4.04,.01,8.08,0,12.11,.03,8.87,.06,17.75,.13,26.62,.24,1.1,.01,2-.29,2.89-.9,4.44-3.06,5.83-7.31,4.01-12.7-1.5-4.43-4.15-8.21-7.28-11.59-4.23-4.57-8.69-8.93-13.07-13.36-2.41-2.44-2.44-2.43-.4-5.08,5-6.48,10.02-12.95,15.04-19.42,.19-.25,.41-.48,.68-.8,1.29,1.37,2.55,2.69,3.8,4.02,7.98,8.51,15.97,17.01,23.92,25.55,2.85,3.06,4.26,6.9,5.35,10.85,1.38,5.04,1.93,10.19,1.66,15.39-.37,7.22-1.92,14.14-5.93,20.31-4.1,6.3-9.9,10.06-17.28,11.4-.47,.08-.96,.06-1.43,.07-19.59,.04-39.18,.06-58.77,.11-7.39,.02-14.79,.07-22.18,.16-1.18,.02-1.51-.35-1.45-1.5,.37-6.57,.49-13.15,1.05-19.7,1.42-16.76,4.28-33.25,9.77-49.21,4.56-13.23,10.75-25.59,19.49-36.6C39.95,15.92,51.4,6.78,65,.34c.21-.1,.44-.18,.84-.34Z"/>
  <path class="cls-1" d="M462.05,130.04h-21.07c0-.59,0-1.02,0-1.45-.06-19.17-.12-38.34-.18-57.51,0-.56,0-1.12-.07-1.67-.4-2.86-1.86-4.32-4.64-4.35-6.96-.06-13.91-.02-20.87-.02-.11,0-.22,.05-.48,.11,0,10.8,0,21.61,0,32.41s0,21.64,0,32.51h-19.67V65.03c-.65,0-1.07,0-1.49,0-6.44,.11-12.87,.2-19.31,.32-3.73,.07-5.54,1.94-5.56,5.68-.08,19.25-.16,38.5-.24,57.75,0,.43,0,.86,0,1.27h-19.62c0-.61,0-1.08,0-1.54,.1-19.33,.15-38.66,.32-57.99,.05-5.54,1.62-10.72,4.96-15.23,3.17-4.29,7.46-6.5,12.84-6.53,24.99-.11,49.97-.24,74.96-.29,2.33,0,4.71,.35,6.99,.89,6.84,1.63,10.67,6.26,12.09,12.94,.52,2.44,.85,4.97,.86,7.46,.11,19.69,.13,39.38,.18,59.07,0,.4,0,.79,0,1.2Z"/>
  <path class="cls-1" d="M552.32,130.25h-20.98v-19.33h-33.76v19.3h-19.88c0-.42,0-.81,0-1.19,.12-19.57,.11-39.14,.43-58.7,.09-5.34,1.85-10.45,5.18-14.8,3.09-4.03,7.47-5.86,12.32-6.72,1.25-.22,2.54-.3,3.81-.29,9.91,.07,19.83,.12,29.74,.31,4.34,.08,8.56,.96,12.53,2.82,3.72,1.75,6.5,4.46,8.2,8.21,1.47,3.25,2.4,6.57,2.39,10.24-.08,19.53,0,39.05,.02,58.58,0,.47,0,.95,0,1.56Zm-55.97-33.67h33.37c.04-.3,.1-.57,.1-.84,.04-8.26,.1-16.52,.09-24.78,0-1.01-.3-2.06-.66-3.01-.68-1.78-1.91-2.79-3.99-2.82-7.87-.13-15.74-.34-23.6-.57-1.55-.05-2.7,.58-3.63,1.72-1.26,1.52-1.66,3.34-1.66,5.25-.02,7.34-.01,14.69-.02,22.03,0,.95,0,1.91,0,3.03Z"/>
  <path class="cls-1" d="M336.94,48.29v15.56h-1.47c-15.91,0-31.82,0-47.73,0-3.04,0-5.17,1.44-6.34,4.23-.26,.61-.4,1.31-.4,1.96-.06,12.5-.1,25-.11,37.5,0,4.57,3.86,8.37,8.43,8.33,6-.04,11.99-.1,17.99-.17,3.58-.04,5.65-1.44,6.68-4.85,.55-1.81,.9-3.74,.98-5.62,.15-3.5,.04-7.02,.04-10.65h-15.22v-11.44h36.55c.02,.37,.07,.75,.07,1.13-.02,8.43-.03,16.85-.08,25.28-.05,9.08-7.87,18.45-16.72,20.08-.39,.07-.8,.06-1.19,.05-13.67-.05-27.34-.1-41.02-.17-8.41-.04-15.2-5.86-16.51-14.14-.07-.47-.07-.96-.07-1.43,.03-15.61,.04-31.23,.09-46.84,.03-9.85,6.72-17.45,16.45-18.7,.32-.04,.64-.04,.96-.04,19.19-.03,38.38-.05,57.57-.08,.32,0,.63,0,1.07,0Z"/>
  <path class="cls-1" d="M203.55,65.3c-4.31,0-8.47,0-12.62,0-11.87,.02-23.75,.04-35.62,.06-3.65,0-6.16,1.81-7.35,5.3-1.33,3.89-.06,8.24,3.16,10.17,.97,.59,2.22,.98,3.35,.99,8.39,.1,16.79,.06,25.18,.1,7.45,.04,13.38,3.21,17.69,9.15,7.71,10.61,4.91,28.05-5.6,35.62-3.06,2.2-6.44,3.38-10.28,3.38-17.91-.01-35.82,.05-53.73,.08-.47,0-.94,0-1.47,0v-17.14c.48,0,.94,0,1.41,0,15.23-.02,30.46-.03,45.69-.05,4.17,0,6.38-1.67,7.58-5.7,.64-2.16,.64-4.32-.05-6.48-1-3.09-4.18-5.25-7.27-5.19-8.31,.16-16.63,.04-24.94,.15-5.44,.07-9.87-2.01-13.52-5.87-7.15-7.58-9.2-20.65-4.58-29.97,3.67-7.4,9.87-11.26,18.05-11.37,17.79-.23,35.58-.18,53.37-.25,.48,0,.96,0,1.53,0v17.02Z"/>
  <path class="cls-1" d="M244.94,130.37h-23.88V48.16h23.88v82.21Z"/>
  <path class="cls-1" d="M526.29,38.18c-3.4,0-6.79,.04-10.19-.02-1.11-.02-2.22-.21-3.31-.45-1.24-.27-1.97-1.17-1.99-2.39-.07-3.47-.07-6.94,0-10.41,.02-1.29,.82-2.2,2.09-2.45,1.29-.26,2.61-.44,3.91-.45,6.35-.05,12.71-.04,19.06,0,1.19,0,2.4,.15,3.56,.39,1.64,.34,2.44,1.26,2.47,2.92,.06,3.19,.07,6.39,0,9.58-.04,1.78-.97,2.77-2.8,3.02-1.54,.2-3.1,.25-4.66,.27-2.72,.04-5.44,.01-8.15,.01h0Zm-9.66-3.13h19.3v-10.06h-19.3v10.06Z"/>
  <path class="cls-1" d="M218.38,25.89c-1.67,.26-3.28,.51-5.02,.77-.06-.6-.11-1.16-.17-1.79h-16.42v3.46c.45,0,.92,0,1.38,0,5.39,.02,10.79,.04,16.18,.07,.51,0,1.03,.09,1.54,.19,2.14,.44,2.88,1.34,2.9,3.56,0,.88,.02,1.76-.01,2.63-.07,1.72-.81,2.68-2.49,3.04-1.01,.22-2.05,.33-3.09,.34-5.71,.03-11.43,.02-17.14,0-.83,0-1.67-.1-2.5-.22-2.34-.35-3.17-1.45-2.99-4.01,1.61-.22,3.25-.44,5.01-.68,.07,.61,.13,1.14,.19,1.78h17.72v-3.57c-.41,0-.83,0-1.25,0-4.88,0-9.75,.02-14.63-.02-1.19,0-2.38-.2-3.57-.34-.31-.04-.63-.15-.9-.3-2.32-1.28-1.59-3.52-1.62-5.46-.02-1.57,.77-2.58,2.2-2.89,1.24-.27,2.53-.44,3.79-.45,4.99-.05,9.99-.04,14.98,0,1.15,0,2.32,.15,3.44,.39,1.87,.4,2.52,1.38,2.45,3.5Z"/>
  <path class="cls-1" d="M388.94,22.06c.23-.03,.38-.07,.54-.07,6.43,.06,12.86-.02,19.28,.26,2.25,.1,4.54,.85,6.67,1.68,2.39,.94,3.96,2.78,4.16,5.51,.21,2.96-1.22,5.03-3.61,6.54-2,1.26-4.25,1.88-6.58,1.95-4.95,.15-9.9,.19-14.84,.26-1.83,.03-3.67,0-5.6,0V22.06Zm5.81,12.92c3.97,0,7.81,.1,11.63-.05,1.56-.06,3.15-.52,4.63-1.05,1.65-.6,2.45-2,2.51-3.75,.06-1.73-.61-3.14-2.19-3.96-.8-.42-1.7-.87-2.57-.9-4.58-.17-9.17-.22-13.76-.31-.07,0-.13,.08-.26,.15v9.87Z"/>
  <path class="cls-1" d="M130.58,38.1c0-2.46,0-4.85,0-7.24,0-2.6,.02-5.19-.01-7.79-.01-.8,.18-1.12,1.06-1.12,7.95,.03,15.91,.03,23.86,0,.82,0,1.19,.22,1.1,1.08-.05,.51,0,1.03,0,1.67h-20v3.64h11.56v2.74h-11.57v3.98h20.16v3.02h-26.14Z"/>
  <path class="cls-1" d="M347.34,22.07c0,4.32,.04,8.51-.02,12.7-.03,1.88-.95,2.84-2.81,3.16-.9,.15-1.82,.25-2.74,.25-5.84,.02-11.67,.02-17.51,0-.72,0-1.44-.07-2.14-.18-2.61-.4-3.34-1.23-3.37-3.88-.03-3.39,0-6.79,0-10.18,0-.59,0-1.18,0-1.86h5.83v12.97h16.83v-12.97h5.93Z"/>
  <path class="cls-1" d="M265.42,24.89h-11.55v-2.82h29.16c0,.73,.09,1.49-.05,2.19-.05,.27-.64,.6-.99,.61-3.08,.05-6.15,.03-9.23,.03-.43,0-.87,0-1.4,0v13.2h-5.94v-13.21Z"/>
  <path class="cls-1" d="M81.33,164.5v-3.64h-4.63v-1.98c2.14,0,4.24-.02,6.35,.03,.2,0,.57,.44,.57,.67,0,1.71-.03,3.43-.12,5.14-.06,1.22-.79,1.92-2.01,1.93-3.15,.03-6.31,.03-9.46,0-1.16-.01-1.93-.67-1.95-1.84-.05-3.38-.06-6.77,0-10.15,.02-1.22,.84-1.88,2.05-1.89,3.11-.03,6.23-.06,9.34,.02,1.49,.04,2.7,1.76,2.08,3.07-.23,.5-1.26,.62-2.07,.97-.08-.85-.13-1.39-.18-1.99h-9.07v9.66h9.09Z"/>
  <path class="cls-1" d="M459.02,38.12V21.99c1.77,0,3.55-.02,5.32,.03,.18,0,.5,.4,.5,.62,.03,5.14,.02,10.27,.02,15.48h-5.85Z"/>
  <path class="cls-1" d="M256.06,152.75c3.34,0,6.61-.02,9.88,.01,1.07,.01,1.73,.67,1.79,1.73,.09,1.47,.16,2.95,.08,4.42-.09,1.7-.72,2.22-2.43,2.29-.39,.02-.79,0-1.57,0,1.79,1.91,3.36,3.59,5.07,5.4-1.68,.17-3.06,.35-4.03-1.24-.59-.98-1.6-1.7-2.19-2.68-1.11-1.82-2.72-1.57-4.52-1.37v5.32h-2.08v-13.88Zm2.15,6.51c2.08,0,4.11,0,6.13,0,.74,0,1.37-.23,1.26-1.05-.16-1.15,.79-2.59-.79-3.42-.03-.02-.08-.03-.12-.03-2.14,0-4.28,0-6.48,0v4.5Z"/>
  <path class="cls-1" d="M161.59,166.59c-.97,.3-1.62-.02-2.26-.72-2.98-3.22-6.01-6.4-9.14-9.7v10.47h-2.02v-13.79c.94-.31,1.67-.14,2.4,.65,2.99,3.26,6.04,6.46,9.09,9.71v-10.38h1.93v13.77Z"/>
  <path class="cls-1" d="M415.24,157.33c-.72,.15-1.37,.28-2.08,.42-.04-.31-.09-.55-.1-.78q-.08-2.21-2.35-2.21c-1.91,0-3.81,0-5.78,0v9.71h8.08v-3.12c.8,.14,1.43,.25,2.1,.36,.05,.19,.12,.33,.13,.48,.2,4-.29,4.5-4.27,4.5-2,0-4,.02-5.99-.04-1.48-.04-2.15-.51-2.21-1.97-.12-3.3-.13-6.62,0-9.92,.06-1.52,.72-2,2.28-2.03,2.52-.06,5.03-.06,7.55-.01,1.87,.03,2.5,.68,2.63,2.53,.05,.63,0,1.27,0,2.07Z"/>
  <path class="cls-1" d="M41.03,163.24v-10.42h1.86v13.76c-.92,.32-1.55,.02-2.2-.68-3.02-3.28-6.1-6.51-9.21-9.81v10.52h-1.91v-13.78c1.04-.34,1.74-.02,2.45,.76,2.92,3.2,5.91,6.35,9.01,9.65Z"/>
  <path class="cls-1" d="M220.43,160.39v4.28h9.54v1.95h-11.77v-13.8h11.64v1.93h-9.4v3.62c1.34,0,2.68,0,4.02,0q1.8,0,1.59,2.03h-5.62Z"/>
  <path class="cls-1" d="M118.21,158.31v2.1h-5.62v4.24h9.5v1.96h-11.73v-13.82h11.63v1.96h-9.42v3.57h5.63Z"/>
  <path class="cls-1" d="M337.58,166.56c-2.05,.4-2.21,.41-2.88-1.39-.52-1.39-1.29-1.85-2.75-1.73-1.75,.15-3.51,.07-5.27,.02-.71-.02-1.13,.2-1.35,.88-.11,.34-.29,.65-.44,.98q-.72,1.59-2.75,1.23c.25-.52,.48-1.01,.72-1.51,1.85-3.84,3.72-7.68,5.55-11.53,.28-.59,.62-.95,1.26-.78,.52,.13,1.26,.27,1.45,.64,2.18,4.26,4.28,8.56,6.39,12.85,.05,.1,.04,.23,.06,.34Zm-4.69-5.16c-1.06-2.27-2.03-4.35-3.1-6.64-1.08,2.34-2.05,4.44-3.06,6.64h6.17Z"/>
  <path class="cls-1" d="M476.56,163.92c1.49-3.33,2.89-6.48,4.3-9.63q.76-1.7,2.73-1.48c-.05,.18-.06,.37-.14,.53-1.92,4.21-3.82,8.42-5.79,12.6-.17,.35-.73,.7-1.13,.71-.4,.01-1.02-.29-1.19-.63-2.08-4.22-4.1-8.46-6.13-12.71-.07-.14-.1-.29-.15-.44,2.02-.44,2.11-.4,2.93,1.35,1.31,2.82,2.63,5.64,3.94,8.45,.16,.35,.35,.7,.62,1.23Z"/>
  <path class="cls-1" d="M540.27,164.59h9.1v2.04h-11.14v-13.86h2.05v11.82Z"/>
  <path class="cls-1" d="M190.88,166.65h-2v-13.82h2v13.82Z"/>
  <path class="cls-1" d="M441.75,152.81h2.02v13.81h-2.02v-13.81Z"/>
  <path class="cls-1" d="M294.7,152.78h2v13.82h-2v-13.82Z"/>
  <path class="cls-1" d="M510.92,152.83v13.77h-2.04v-13.77h2.04Z"/>
  <path class="cls-1" d="M298.9,145.56c-1.08,1.61-2.13,3.24-3.28,4.79-.28,.37-.94,.46-1.42,.68-.08-.1-.16-.21-.23-.31,.85-1.69,1.58-3.44,2.61-5.01,.3-.46,1.44-.38,2.19-.55,.05,.13,.09,.27,.14,.4Z"/>
</svg>